<svg xmlns="http://www.w3.org/2000/svg" width="32" height="32" viewBox="0 0 32 32">
  <defs>
    <linearGradient id="bgGrad" x1="0%" y1="0%" x2="100%" y2="100%">
      <stop offset="0%" style="stop-color:#1a1a1a;stop-opacity:1" />
      <stop offset="100%" style="stop-color:#2d2d2d;stop-opacity:1" />
    </linearGradient>
    <linearGradient id="iconGrad" x1="0%" y1="0%" x2="100%" y2="100%">
      <stop offset="0%" style="stop-color:#f59e0b;stop-opacity:1" />
      <stop offset="100%" style="stop-color:#d97706;stop-opacity:1" />
    </linearGradient>
  </defs>
  <circle cx="16" cy="16" r="15" fill="url(#bgGrad)" stroke="url(#iconGrad)" stroke-width="1"/>
  <path d="M12 8c0-1.5 1-3 3-3s3 1.5 3 3v8c0 1.5-1 3-3 3s-3-1.5-3-3V8z" fill="url(#iconGrad)"/>
  <path d="M8 16c0-2 1.5-4 4-4s4 2 4 4v4c0 2-1.5 4-4 4s-4-2-4-4v-4z" fill="url(#iconGrad)"/>
  <path d="M20 12c0-2 1.5-4 4-4v8c-2.5 0-4-2-4-4z" fill="url(#iconGrad)"/>
</svg>